<?xml version="1.0" encoding="UTF-8" standalone="no"?>
<svg
   xmlns:dc="http://purl.org/dc/elements/1.1/"
   xmlns:cc="http://creativecommons.org/ns#"
   xmlns:rdf="http://www.w3.org/1999/02/22-rdf-syntax-ns#"
   xmlns:svg="http://www.w3.org/2000/svg"
   xmlns="http://www.w3.org/2000/svg"
   xmlns:sodipodi="http://sodipodi.sourceforge.net/DTD/sodipodi-0.dtd"
   xmlns:inkscape="http://www.inkscape.org/namespaces/inkscape"
   width="176"
   height="176"
   version="1.1"
   x="0px"
   y="0px"
   viewBox="0 0 88 88"
   id="svg3063"
   inkscape:version="0.48.5 r10040"
   sodipodi:docname="capture-contact-information.svg"
   style="fill:#ffffff">
  <metadata
     id="metadata3073">
    <rdf:RDF>
      <cc:Work
         rdf:about="">
        <dc:format>image/svg+xml</dc:format>
        <dc:type
           rdf:resource="http://purl.org/dc/dcmitype/StillImage" />
      </cc:Work>
    </rdf:RDF>
  </metadata>
  <defs
     id="defs3071" />
  <sodipodi:namedview
     pagecolor="#ffffff"
     bordercolor="#666666"
     borderopacity="1"
     objecttolerance="10"
     gridtolerance="10"
     guidetolerance="10"
     inkscape:pageopacity="0"
     inkscape:pageshadow="2"
     inkscape:window-width="1440"
     inkscape:window-height="807"
     id="namedview3069"
     showgrid="false"
     fit-margin-top="0"
     fit-margin-left="0"
     fit-margin-right="0"
     fit-margin-bottom="0"
     inkscape:zoom="1.18"
     inkscape:cx="-26.355932"
     inkscape:cy="88.00004"
     inkscape:window-x="0"
     inkscape:window-y="1"
     inkscape:window-maximized="1"
     inkscape:current-layer="svg3063" />
  <path
     inkscape:connector-curvature="0"
     id="path3067"
     overflow="visible"
     display="inline"
     visibility="visible"
     d="m 17,-4.758789e-6 c -1.5989,0 -3,1.455860058789 -3,3.000000058789 l 0,8.9999997 -6,0 c -2.1814,0 -4,1.8186 -4,4 l 0,2 c 0,2.1814 1.8186,4 4,4 l 6,0 0,8 -6,0 c -2.1814,0 -4,1.8186 -4,4 l 0,2 c 0,2.1814 1.8186,4 4,4 l 6,0 0,8.00002 -6,0 c -2.1814,0 -4,1.8186 -4,4 l 0,2 c 0,2.1814 1.8186,4 4,4 l 6,0 0,8 -6,0 c -2.1814,0 -4,1.8186 -4,4 l 0,2 c 0,2.1814 1.8186,4 4,4 l 6,0 0,9 c 0,1.5441 1.4011,3 3,3 l 64,0 c 1.5989,0 3,-1.4559 3,-3 L 84,2.9999853 C 84,1.4558453 82.5989,-1.4758789e-5 81,-1.4758789e-5 l -64,0 z M 18,3.9999953 l 62,0 0,80.0000197 -62,0 0,-8 6,0 c 2.1814,0 4,-1.8186 4,-4 l 0,-2 c 0,-2.1814 -1.8186,-4 -4,-4 l -6,0 0,-8 6,0 c 2.1814,0 4,-1.8186 4,-4 l 0,-2 c 0,-2.1814 -1.8186,-4 -4,-4 l -6,0 0,-8.00002 6,0 c 2.1814,0 4,-1.8186 4,-4 l 0,-2 c 0,-2.1814 -1.8186,-4 -4,-4 l -6,0 0,-8 6,0 c 2.1814,0 4,-1.8186 4,-4 l 0,-2 c 0,-2.1814 -1.8186,-4 -4,-4 l -6,0 0,-7.9999997 z m 36,7.9999997 c -4.3946,0 -8,3.60541 -8,8 0,4.39459 3.6054,8 8,8 4.3946,0 8,-3.60541 8,-8 0,-4.39459 -3.6054,-8 -8,-8 z m -46,4 16,0 0,2 -16,0 0,-2 z m 46,0 c 2.2328,0 4,1.76717 4,4 0,2.23283 -1.7672,4 -4,4 -2.2328,0 -4,-1.76717 -4,-4 0,-2.23283 1.7672,-4 4,-4 z m 0,16 c -4.1976,0 -8.0013,0.97473 -10.9062,2.65625 C 40.1887,36.337765 38,38.886835 38,42.000015 l 0,8 a 2.0001999,2.0001999 0 0 0 2,2 l 28,0 a 2.0001999,2.0001999 0 0 0 2,-2 l 0,-8 c 0,-3.11318 -2.1887,-5.66225 -5.0938,-7.34377 -2.905,-1.68152 -6.7086,-2.65625 -10.9062,-2.65625 z m -46,2 16,0 0,2 -16,0 0,-2 z m 46,2 c 3.5584,0 6.7504,0.87704 8.9062,2.125 2.156,1.24796 3.0938,2.70607 3.0938,3.87502 l 0,6 -24,0 0,-6 c 0,-1.16895 0.9378,-2.62706 3.0938,-3.87502 2.1559,-1.24796 5.3478,-2.125 8.9062,-2.125 z m -46,16.00002 16,0 0,2 -16,0 0,-2 z m 32,6 c -1.1046,0 -2,0.8954 -2,2 0,1.1046 0.8954,2 2,2 l 28,0 c 1.1046,0 2,-0.8954 2,-2 0,-1.1046 -0.8954,-2 -2,-2 l -28,0 z m 0,10 c -1.1046,0 -2,0.8954 -2,2 0,1.1046 0.8954,2 2,2 l 28,0 c 1.1046,0 2,-0.8954 2,-2 0,-1.1046 -0.8954,-2 -2,-2 l -28,0 z m -32,2 16,0 0,2 -16,0 0,-2 z"
     style="text-indent:0;text-transform:none;direction:ltr;block-progression:tb;baseline-shift:baseline;color:#000000;fill:#ffffff;fill-opacity:1;stroke:none;marker:none;visibility:visible;display:inline;overflow:visible;enable-background:accumulate" />
</svg>
