<?xml version="1.0" encoding="UTF-8" standalone="no"?>
<svg
   xmlns:dc="http://purl.org/dc/elements/1.1/"
   xmlns:cc="http://creativecommons.org/ns#"
   xmlns:rdf="http://www.w3.org/1999/02/22-rdf-syntax-ns#"
   xmlns:svg="http://www.w3.org/2000/svg"
   xmlns="http://www.w3.org/2000/svg"
   xmlns:sodipodi="http://sodipodi.sourceforge.net/DTD/sodipodi-0.dtd"
   xmlns:inkscape="http://www.inkscape.org/namespaces/inkscape"
   width="199.16"
   height="199.16"
   version="1.1"
   x="0px"
   y="0px"
   viewBox="0 0 99.580002 99.579994"
   enable-background="new 0 0 100 100"
   xml:space="preserve"
   id="svg2"
   inkscape:version="0.48.5 r10040"
   sodipodi:docname="discover-audience-insights.svg"
   style="fill:#ffffff"><metadata
     id="metadata40"><rdf:RDF><cc:Work
         rdf:about=""><dc:format>image/svg+xml</dc:format><dc:type
           rdf:resource="http://purl.org/dc/dcmitype/StillImage" /></cc:Work></rdf:RDF></metadata><defs
     id="defs38" /><sodipodi:namedview
     pagecolor="#ffffff"
     bordercolor="#666666"
     borderopacity="1"
     objecttolerance="10"
     gridtolerance="10"
     guidetolerance="10"
     inkscape:pageopacity="0"
     inkscape:pageshadow="2"
     inkscape:window-width="1440"
     inkscape:window-height="807"
     id="namedview36"
     showgrid="false"
     fit-margin-top="0"
     fit-margin-left="0"
     fit-margin-right="0"
     fit-margin-bottom="0"
     inkscape:zoom="1.18"
     inkscape:cx="-6.3582723"
     inkscape:cy="41.5625"
     inkscape:window-x="0"
     inkscape:window-y="1"
     inkscape:window-maximized="1"
     inkscape:current-layer="svg2" /><path
     style="fill:#ffffff"
     d="m 49.170281,24.196411 c -0.64,0.014 -1.142,0.531875 -1.125,1.171875 l 0.0625,7.21875 c 0.014,0.64 0.5465,1.154625 1.1875,1.140625 0.642,-0.015 1.139,-0.5455 1.125,-1.1875 l -0.0625,-7.21875 c -0.014,-0.64 -0.5465,-1.14 -1.1875,-1.125 z m 9.21875,0.515625 c -0.543785,0.02807 -1.008,0.431375 -1.09375,0.984375 l -1.078125,7.1875 c -0.094,0.633 0.33475,1.234125 0.96875,1.328125 0.069,0.012 0.138125,0.01662 0.203125,0.01563 0.556,-0.014 1.036,-0.432 1.125,-1 l 1.09375,-7.1875 c 0.092,-0.634 -0.350375,-1.2175 -0.984375,-1.3125 -0.0805,-0.01212 -0.15669,-0.01964 -0.234375,-0.01563 z m -18.828125,0.671875 c -0.0779,-5.5e-4 -0.154375,0 -0.234375,0.01563 -0.628,0.124 -1.044875,0.729375 -0.921875,1.359375 l 1.65625,6.890625 c 0.107,0.562 0.615875,0.9495 1.171875,0.9375 0.065,-10e-4 0.1195,-0.0036 0.1875,-0.01563 0.628,-0.124 1.044875,-0.730375 0.921875,-1.359375 l -1.65625,-6.890625 c -0.1085,-0.55125 -0.579711,-0.933767 -1.125,-0.9375 z m 27.484375,1.046875 c -0.450235,0.05738 -0.839,0.38025 -0.96875,0.84375 l -1.84375,6.625 c -0.174,0.618 0.1935,1.2655 0.8125,1.4375 0.065,0.019 0.1225,0.02325 0.1875,0.03125 0.553,0.055 1.097,-0.29275 1.25,-0.84375 l 1.828125,-6.625 c 0.172,-0.617 -0.176875,-1.2635 -0.796875,-1.4375 -0.1565,-0.0435 -0.31867,-0.05037 -0.46875,-0.03125 z m -35.84375,0.734375 c -0.0772,0.0091 -0.157125,0.02163 -0.234375,0.04687 -0.61,0.201 -0.937375,0.85975 -0.734375,1.46875 l 1.921875,6.625 c 0.178,0.543 0.73225,0.86225 1.28125,0.78125 0.065,-0.01 0.1245,-0.02488 0.1875,-0.04687 0.61,-0.199 0.95,-0.844125 0.75,-1.453125 l -1.9375,-6.625 c -0.17675,-0.53375 -0.693953,-0.860312 -1.234375,-0.796875 z m 44.203125,2.046875 c -0.45136,0.02358 -0.8655,0.314125 -1.03125,0.765625 l -2.484375,6.390625 c -0.219,0.604 0.09913,1.267375 0.703125,1.484375 0.133,0.049 0.27225,0.0655 0.40625,0.0625 0.473,-0.002 0.907125,-0.28 1.078125,-0.75 l 2.484375,-6.40625 c 0.219,-0.604 -0.09913,-1.266375 -0.703125,-1.484375 -0.151,-0.05525 -0.30267,-0.07036 -0.453125,-0.0625 z m -52.359375,0.796875 c -0.150719,-0.001 -0.304875,0.032 -0.453125,0.09375 -0.593,0.245 -0.872,0.920625 -0.625,1.515625 l 2.71875,6.65625 c 0.193,0.461 0.639375,0.73575 1.109375,0.71875 0.134,-0.003 0.27525,-0.03775 0.40625,-0.09375 0.592,-0.245 0.873,-0.919625 0.625,-1.515625 l -2.71875,-6.65625 c -0.18525,-0.444 -0.610344,-0.715609 -1.0625,-0.71875 z m 60.546875,2.859375 c -0.371375,0.03276 -0.711875,0.243125 -0.90625,0.59375 l -3.671875,6.125 c -0.311,0.561 -0.1235,1.28475 0.4375,1.59375 0.151,0.084 0.31175,0.125625 0.46875,0.140625 0.445,0.035 0.879375,-0.18175 1.109375,-0.59375 l 3.6875,-6.140625 c 0.308,-0.561 0.107875,-1.266125 -0.453125,-1.578125 -0.213,-0.118125 -0.44905,-0.160277 -0.671875,-0.140625 z m -68.53125,1.625 c -0.22418,-0.0093 -0.448875,0.04362 -0.65625,0.171875 -0.542,0.335 -0.727625,1.04775 -0.390625,1.59375 l 3.875,5.890625 c 0.246,0.402 0.700625,0.58925 1.140625,0.53125 0.157,-0.019 0.32375,-0.06425 0.46875,-0.15625 0.546,-0.334 0.711,-1.04775 0.375,-1.59375 l -3.875,-5.890625 c -0.209375,-0.34125 -0.563867,-0.531406 -0.9375,-0.546875 z m 35.90625,1.5625 c -15.096,0 -30.09875,6.369875 -44.5937503,18.921875 -0.686,0.592 -0.7695,1.6175 -0.1875,2.3125 0.62,0.737 15.4790003,18.09375 41.2500003,18.09375 15.053,0 30.661625,-6.001125 46.390625,-17.828125 0.372,-0.28 0.60825,-0.69325 0.65625,-1.15625 0.044,-0.463 -0.111875,-0.93425 -0.421875,-1.28125 -0.696,-0.777 -17.35475,-19.0625 -43.09375,-19.0625 z m 39.953125,1.609375 c -0.37241,-0.01954 -0.740625,0.149375 -0.984375,0.46875 l -3.859375,5.5 c -0.387,0.512 -0.280625,1.237 0.234375,1.625 0.192,0.145 0.415625,0.223375 0.640625,0.234375 0.369,0.019 0.745375,-0.15075 0.984375,-0.46875 l 3.84375,-5.5 c 0.385,-0.513 0.29225,-1.238 -0.21875,-1.625 -0.190875,-0.144 -0.41718,-0.222651 -0.640625,-0.234375 z m -39.9375,1.71875 c 20.327,0 35.0185,12.52525 39.3125,16.65625 -14.619,10.638 -29.022375,16.03125 -42.859375,16.03125 -20.333,0 -33.745125,-11.841125 -37.5781253,-15.703125 C 23.320781,45.092286 37.156781,39.383911 50.982781,39.383911 z m -43.4375003,0.3125 c -0.2223455,0.02182 -0.4405,0.113375 -0.625,0.265625 -0.492,0.41 -0.56525,1.132 -0.15625,1.625 l 4.4375003,5.171875 c 0.259,0.308 0.632,0.44025 1,0.40625 0.224,-0.022 0.439,-0.098 0.625,-0.25 0.495,-0.411 0.56525,-1.147625 0.15625,-1.640625 l -3.4062503,-3.96875 -1.015625,-1.1875 c -0.258125,-0.30875 -0.645049,-0.458242 -1.015625,-0.421875 z m 42.5937503,2.6875 c -7.363,0 -13.328125,5.97975 -13.328125,13.34375 0,7.364 5.964125,13.328125 13.328125,13.328125 7.36,0 13.34375,-5.964125 13.34375,-13.328125 0,-7.364 -5.98275,-13.34375 -13.34375,-13.34375 z m 48.3125,1.046875 c -0.296875,-0.0083 -0.594625,0.109125 -0.828125,0.328125 l -5.234375,4.921875 c -0.466,0.44 -0.485875,1.174625 -0.04685,1.640625 0.197,0.209 0.45175,0.331375 0.71875,0.359375 0.325,0.035 0.658875,-0.0705 0.921875,-0.3125 l 5.23435,-4.921875 c 0.466,-0.438 0.485875,-1.174625 0.04685,-1.640625 -0.221,-0.233 -0.515625,-0.36675 -0.8125,-0.375 z m -97.3750003,2.71875 c -0.296125,0.02175 -0.587375,0.16275 -0.796875,0.40625 -0.42,0.485 -0.359,1.223625 0.125,1.640625 l 5,4.15625 c 0.268,0.234 0.597875,0.33125 0.921875,0.28125 0.263,-0.04 0.516125,-0.171625 0.703125,-0.390625 0.418,-0.485 0.375625,-1.220625 -0.109375,-1.640625 l -5,-4.171875 c -0.242,-0.2085 -0.547625,-0.303 -0.84375,-0.28125 z m 53.7187503,1.453125 c 1.664,0 3,1.352625 3,3.015625 0,1.664 -1.336,3 -3,3 -1.664,0 -3.015625,-1.337 -3.015625,-3 0,-1.663 1.351625,-3.015625 3.015625,-3.015625 z"
     id="line4"
     inkscape:connector-curvature="0" /></svg>