<?xml version="1.0" encoding="UTF-8" standalone="no"?>
<svg
   xmlns:dc="http://purl.org/dc/elements/1.1/"
   xmlns:cc="http://creativecommons.org/ns#"
   xmlns:rdf="http://www.w3.org/1999/02/22-rdf-syntax-ns#"
   xmlns:svg="http://www.w3.org/2000/svg"
   xmlns="http://www.w3.org/2000/svg"
   xmlns:sodipodi="http://sodipodi.sourceforge.net/DTD/sodipodi-0.dtd"
   xmlns:inkscape="http://www.inkscape.org/namespaces/inkscape"
   width="177.5"
   height="177.5"
   version="1.1"
   x="0px"
   y="0px"
   viewBox="0 0 88.75 88.75"
   enable-background="new 0 0 100 100"
   xml:space="preserve"
   id="svg3027"
   inkscape:version="0.48.5 r10040"
   sodipodi:docname="drive-qualified-traffic.svg"
   style="fill:#ffffff"><metadata
     id="metadata3035"><rdf:RDF><cc:Work
         rdf:about=""><dc:format>image/svg+xml</dc:format><dc:type
           rdf:resource="http://purl.org/dc/dcmitype/StillImage" /></cc:Work></rdf:RDF></metadata><defs
     id="defs3033" /><sodipodi:namedview
     pagecolor="#ffffff"
     bordercolor="#666666"
     borderopacity="1"
     objecttolerance="10"
     gridtolerance="10"
     guidetolerance="10"
     inkscape:pageopacity="0"
     inkscape:pageshadow="2"
     inkscape:window-width="1440"
     inkscape:window-height="807"
     id="namedview3031"
     showgrid="false"
     inkscape:zoom="1.18"
     inkscape:cx="-18.354432"
     inkscape:cy="88.75"
     inkscape:window-x="0"
     inkscape:window-y="1"
     inkscape:window-maximized="1"
     inkscape:current-layer="svg3027"
     fit-margin-top="0"
     fit-margin-left="0"
     fit-margin-right="0"
     fit-margin-bottom="0" /><path
     d="m 86.625375,88.75 h -84.5 c -0.967,0 -1.75,-0.783 -1.75,-1.75 V 73.539 c -0.001,-0.026 -0.001,-0.054 0,-0.08 V 1.75 c 0,-0.967 0.783,-1.75 1.75,-1.75 h 84.5 c 0.967,0 1.75,0.783 1.75,1.75 V 87 c 0,0.967 -0.783,1.75 -1.75,1.75 z m -82.75,-3.5 h 81 V 42.603 l -6.949,0.628 c -10e-4,0.021 -0.003,0.04 -0.004,0.06 -0.127,1.712 -0.913,3.271 -2.213,4.393 -1.3,1.12 -2.96,1.663 -4.67,1.541 -1.566,-0.116 -3.006,-0.784 -4.098,-1.893 l -10.462,8.041 c 0.698,2.351 0.013,5.002 -1.962,6.704 -1.3,1.12 -2.963,1.661 -4.67,1.54 -1.712,-0.127 -3.271,-0.913 -4.393,-2.213 -1.12,-1.301 -1.667,-2.959 -1.54,-4.67 0.03,-0.413 0.1,-0.817 0.205,-1.208 l -7.046,-4.327 c -0.158,0.169 -0.326,0.33 -0.504,0.483 -1.3,1.121 -2.96,1.665 -4.67,1.542 -0.994,-0.074 -1.937,-0.369 -2.771,-0.858 l -9.378,12.281 c 1.933,2.673 1.528,6.438 -1.015,8.629 -1.3,1.12 -2.958,1.661 -4.669,1.541 -1.516,-0.112 -2.911,-0.741 -3.989,-1.785 l -6.202,1.785 V 85.25 z m 8.45,-14.932 c 0.511,0.592 1.221,0.95 2,1.008 0.789,0.053 1.534,-0.191 2.125,-0.702 0.593,-0.511 0.951,-1.221 1.009,-2 0.058,-0.779 -0.191,-1.534 -0.702,-2.126 -0.099,-0.114 -0.204,-0.221 -0.317,-0.317 -0.014,-0.009 -0.026,-0.019 -0.04,-0.029 -0.036,-0.027 -0.07,-0.056 -0.104,-0.086 -0.442,-0.333 -0.972,-0.532 -1.538,-0.574 -0.772,-0.058 -1.534,0.191 -2.126,0.701 -1.222,1.052 -1.36,2.903 -0.307,4.125 l 0,0 z m -8.45,-49.818 v 50.675 l 4.418,-1.271 c -0.537,-2.263 0.174,-4.742 2.054,-6.362 1.3,-1.12 2.96,-1.673 4.67,-1.54 0.695,0.051 1.365,0.211 1.991,0.471 l 9.675,-12.67 c -0.555,-1.054 -0.806,-2.244 -0.715,-3.461 0.127,-1.712 0.912,-3.271 2.212,-4.392 1.3,-1.121 2.959,-1.677 4.67,-1.541 1.712,0.127 3.271,0.912 4.392,2.212 1.121,1.3 1.668,2.959 1.541,4.67 -0.02,0.266 -0.055,0.527 -0.105,0.784 l 7.247,4.451 c 0.066,-0.063 0.135,-0.124 0.204,-0.185 1.3,-1.12 2.96,-1.667 4.67,-1.54 1.427,0.105 2.747,0.669 3.796,1.606 l 10.651,-8.187 c -0.497,-2.238 0.22,-4.674 2.074,-6.272 1.3,-1.12 2.958,-1.676 4.67,-1.54 1.712,0.127 3.271,0.912 4.392,2.212 0.313,0.362 0.58,0.752 0.801,1.164 l 7.693,-0.695 V 20.5 h -81.001 z m 43.906,35.257 c -0.214,0.373 -0.343,0.793 -0.376,1.235 -0.058,0.779 0.191,1.534 0.702,2.126 0.51,0.592 1.22,0.95 1.999,1.008 0.776,0.054 1.534,-0.191 2.126,-0.702 1.064,-0.916 1.306,-2.438 0.655,-3.623 -0.041,-0.06 -0.077,-0.121 -0.11,-0.184 -0.071,-0.109 -0.15,-0.217 -0.239,-0.318 -0.51,-0.592 -1.22,-0.95 -1.999,-1.008 -0.78,-0.051 -1.534,0.192 -2.126,0.701 -0.229,0.197 -0.422,0.424 -0.577,0.673 -0.012,0.021 -0.024,0.044 -0.038,0.065 -0.006,0.009 -0.011,0.018 -0.017,0.027 z m -17.602,-7.009 c 0.509,0.578 1.211,0.928 1.979,0.985 0.786,0.057 1.535,-0.191 2.127,-0.702 0.293,-0.253 0.529,-0.555 0.699,-0.89 0.016,-0.037 0.033,-0.073 0.053,-0.109 0.142,-0.312 0.229,-0.648 0.255,-1.001 0.058,-0.779 -0.191,-1.534 -0.701,-2.126 -0.511,-0.592 -1.221,-0.949 -2,-1.007 -0.771,-0.059 -1.533,0.191 -2.126,0.701 -0.592,0.511 -0.949,1.221 -1.007,2 -0.058,0.77 0.186,1.517 0.684,2.105 0.012,0.015 0.025,0.029 0.037,0.044 z m 38.737,-4.588 c 0.103,0.199 0.23,0.389 0.383,0.565 0.51,0.592 1.22,0.95 1.998,1.008 0.789,0.056 1.535,-0.191 2.127,-0.702 0.845,-0.728 1.171,-1.837 0.944,-2.855 -0.02,-0.062 -0.035,-0.123 -0.048,-0.188 -0.114,-0.388 -0.31,-0.758 -0.591,-1.083 -0.51,-0.592 -1.22,-0.949 -1.999,-1.007 -0.769,-0.061 -1.533,0.191 -2.126,0.701 -1.002,0.864 -1.274,2.264 -0.76,3.414 0.027,0.049 0.051,0.097 0.072,0.147 z M 3.875375,17 h 81 V 3.5 h -81 V 17 z m 9.188,22.5 h -3.688 c -0.967,0 -1.75,-0.783 -1.75,-1.75 0,-0.967 0.783,-1.75 1.75,-1.75 h 3.688 c 0.967,0 1.75,0.783 1.75,1.75 0,0.967 -0.784,1.75 -1.75,1.75 z m -2.657,-5.625 h -1.031 c -0.967,0 -1.75,-0.783 -1.75,-1.75 0,-0.967 0.783,-1.75 1.75,-1.75 h 1.031 c 0.967,0 1.75,0.783 1.75,1.75 0,0.967 -0.783,1.75 -1.75,1.75 z m 5.969,-6 h -7 c -0.967,0 -1.75,-0.783 -1.75,-1.75 0,-0.967 0.783,-1.75 1.75,-1.75 h 7 c 0.967,0 1.75,0.783 1.75,1.75 0,0.967 -0.783,1.75 -1.75,1.75 z m 31.833,-13.542 c -0.967,0 -1.75,-0.783 -1.75,-1.75 V 7.917 c 0,-0.967 0.783,-1.75 1.75,-1.75 h 31 c 0.967,0 1.75,0.783 1.75,1.75 0,0.967 -0.783,1.75 -1.75,1.75 h -29.25 v 2.916 c 0,0.967 -0.783,1.75 -1.75,1.75 z M 37.542375,12 h -5.167 c -0.967,0 -1.75,-0.783 -1.75,-1.75 0,-0.967 0.783,-1.75 1.75,-1.75 h 5.167 c 0.967,0 1.75,0.783 1.75,1.75 0,0.967 -0.783,1.75 -1.75,1.75 z m -11.5,0 h -5.167 c -0.967,0 -1.75,-0.783 -1.75,-1.75 0,-0.967 0.783,-1.75 1.75,-1.75 h 5.167 c 0.967,0 1.75,0.783 1.75,1.75 0,0.967 -0.783,1.75 -1.75,1.75 z m -11.5,0 h -5.167 c -0.967,0 -1.75,-0.783 -1.75,-1.75 0,-0.967 0.783,-1.75 1.75,-1.75 h 5.167 c 0.967,0 1.75,0.783 1.75,1.75 0,0.967 -0.783,1.75 -1.75,1.75 z"
     id="path3029"
     style="fill:#ffffff"
     inkscape:connector-curvature="0" /></svg>