<?xml version="1.0" encoding="UTF-8" standalone="no"?>
<svg
   xmlns:dc="http://purl.org/dc/elements/1.1/"
   xmlns:cc="http://creativecommons.org/ns#"
   xmlns:rdf="http://www.w3.org/1999/02/22-rdf-syntax-ns#"
   xmlns:svg="http://www.w3.org/2000/svg"
   xmlns="http://www.w3.org/2000/svg"
   xmlns:sodipodi="http://sodipodi.sourceforge.net/DTD/sodipodi-0.dtd"
   xmlns:inkscape="http://www.inkscape.org/namespaces/inkscape"
   width="180.06"
   height="180.06"
   version="1.1"
   x="0px"
   y="0px"
   viewBox="0 0 90.029999 90.029998"
   id="svg2"
   inkscape:version="0.48.5 r10040"
   sodipodi:docname="improve-audience-targeting.svg"
   style="fill:#ffffff">
  <metadata
     id="metadata12">
    <rdf:RDF>
      <cc:Work
         rdf:about="">
        <dc:format>image/svg+xml</dc:format>
        <dc:type
           rdf:resource="http://purl.org/dc/dcmitype/StillImage" />
      </cc:Work>
    </rdf:RDF>
  </metadata>
  <defs
     id="defs10" />
  <sodipodi:namedview
     pagecolor="#ffffff"
     bordercolor="#666666"
     borderopacity="1"
     objecttolerance="10"
     gridtolerance="10"
     guidetolerance="10"
     inkscape:pageopacity="0"
     inkscape:pageshadow="2"
     inkscape:window-width="1440"
     inkscape:window-height="807"
     id="namedview8"
     showgrid="false"
     fit-margin-top="0"
     fit-margin-left="0"
     fit-margin-right="0"
     fit-margin-bottom="0"
     inkscape:zoom="1.18"
     inkscape:cx="-219.76251"
     inkscape:cy="122.41504"
     inkscape:window-x="0"
     inkscape:window-y="1"
     inkscape:window-maximized="1"
     inkscape:current-layer="svg2" />
  <path
     inkscape:connector-curvature="0"
     id="path6"
     overflow="visible"
     display="inline"
     visibility="visible"
     d="m 78.992168,-5.2e-4 c -0.5086,0.011 -1.0119,0.32134 -1.312597,0.53125 l -9,8 c -0.4164,0.37778 -0.6614,0.93776 -0.6562,1.5 l 0,9.15625 -2.875,2.875 c -6.9169,-6.24492 -16.0874,-10.03125 -26.125,-10.03125 -21.5154,0 -39.0000002,17.4845 -39.0000002,38.99999 0,21.5153 17.4846002,39 39.0000002,39 21.5154,0 38.999997,-17.4847 38.999997,-39 0,-10.04499 -3.809397,-19.20635 -10.062497,-26.12499 l 2.875,-2.875 9.187497,0 c 0.5669,-0.003 1.1279,-0.25973 1.5,-0.6875 l 8,-9 c 0.499,-0.57403 0.6264,-1.44452 0.3126,-2.13742 -0.3138,-0.6929 -1.052,-1.17146 -1.8126,-1.17508 l -7,0 0,-7 c 0.017,-1.06802 -0.9632,-2.04794 -2.0312,-2.03125 z m -1.968797,6.46875 0,4.5625 c 1e-4,1.04717 0.952797,1.9999 1.999997,2 l 4.5312,0 -4.4374,5 -7.093797,0 0,-7.125 z m -38,9.5625 c 8.9596,0 17.1265,3.32178 23.3125,8.84375 l -3.5625,3.5625 c -5.2801,-4.62659 -12.1929,-7.40625 -19.75,-7.40625 -16.5448,0 -30.0000004,13.455 -30.0000004,29.99999 0,16.5447 13.4552004,30 30.0000004,30 16.5449,0 30,-13.4553 30,-30 0,-7.5567 -2.8114,-14.47006 -7.4375,-19.74999 l 3.5625,-3.5625 c 5.5144,6.18431 8.875,14.35971 8.875,23.31249 0,19.3535 -15.6464,35 -35,35 -19.3536,0 -35.0000002,-15.6465 -35.0000002,-35 0,-19.35369 15.6464002,-34.99999 35.0000002,-34.99999 z m 0,9 c 6.4609,0 12.3639,2.36413 16.9062,6.25 l -5,5 c -3.265,-2.64408 -7.3913,-4.25 -11.9062,-4.25 -10.4697,0 -19,8.5303 -19,18.99999 0,10.4696 8.5303,19 19,19 10.4697,0 19,-8.5304 19,-19 0,-4.5157 -1.6051,-8.67219 -4.25,-11.93749 l 5,-5 c 3.8951,4.54472 6.25,10.46799 6.25,16.93749 0,14.3829 -11.6169,26 -26,26 -14.383,0 -26,-11.6171 -26,-26 0,-14.38319 11.617,-25.99999 26,-25.99999 z m 0,11 c 3.4238,0 6.5741,1.14462 9.0938,3.0625 l -6.5313,6.53129 c -0.7829,-0.3776 -1.6422,-0.5938 -2.5625,-0.5938 -3.29,0 -6,2.71 -6,6 0,3.29 2.71,6 6,6 3.2899,0 6,-2.7099 6,-6 0,-0.9253 -0.2124,-1.8075 -0.5938,-2.5937 l 6.5313,-6.53129 c 1.9272,2.52299 3.0625,5.69199 3.0625,9.12499 0,8.3078 -6.6921,15 -15,15 -8.3079,0 -15,-6.6922 -15,-15 0,-8.3079 6.6921,-14.99999 15,-14.99999 z m 1.125,16.62499 c -0.043,0.03 -0.079,0.068 -0.125,0.094 0.043,-0.03 0.085,-0.061 0.125,-0.094 z"
     style="text-indent:0;text-transform:none;direction:ltr;block-progression:tb;baseline-shift:baseline;color:#000000;fill:#ffffff;fill-opacity:1;stroke:none;marker:none;visibility:visible;display:inline;overflow:visible;enable-background:accumulate" />
</svg>
