<?xml version="1.0" encoding="UTF-8" standalone="no"?>
<svg
   xmlns:dc="http://purl.org/dc/elements/1.1/"
   xmlns:cc="http://creativecommons.org/ns#"
   xmlns:rdf="http://www.w3.org/1999/02/22-rdf-syntax-ns#"
   xmlns:svg="http://www.w3.org/2000/svg"
   xmlns="http://www.w3.org/2000/svg"
   xmlns:sodipodi="http://sodipodi.sourceforge.net/DTD/sodipodi-0.dtd"
   xmlns:inkscape="http://www.inkscape.org/namespaces/inkscape"
   width="192.12"
   height="192.12"
   version="1.1"
   x="0px"
   y="0px"
   viewBox="0 0 96.059998 96.059998"
   enable-background="new 0 0 100 100"
   xml:space="preserve"
   id="svg2999"
   inkscape:version="0.48.5 r10040"
   sodipodi:docname="increase-sales-volume.svg"
   style="fill:#ffffff"><metadata
     id="metadata3007"><rdf:RDF><cc:Work
         rdf:about=""><dc:format>image/svg+xml</dc:format><dc:type
           rdf:resource="http://purl.org/dc/dcmitype/StillImage" /></cc:Work></rdf:RDF></metadata><defs
     id="defs3005" /><sodipodi:namedview
     pagecolor="#ffffff"
     bordercolor="#666666"
     borderopacity="1"
     objecttolerance="10"
     gridtolerance="10"
     guidetolerance="10"
     inkscape:pageopacity="0"
     inkscape:pageshadow="2"
     inkscape:window-width="1060"
     inkscape:window-height="656"
     id="namedview3003"
     showgrid="false"
     fit-margin-top="0"
     fit-margin-left="0"
     fit-margin-right="0"
     fit-margin-bottom="0"
     inkscape:zoom="1.18"
     inkscape:cx="-10.29429"
     inkscape:cy="73.06"
     inkscape:window-x="0"
     inkscape:window-y="0"
     inkscape:window-maximized="0"
     inkscape:current-layer="svg2999" /><path
     d="m 95.723735,33.291499 c -0.285,-0.35 -0.712,-0.553 -1.163,-0.553 h -10.83 c -0.103,-0.18 -0.194,-0.364 -0.321,-0.534 l -17.74,-23.723 c -0.954,-1.275 -2.474,-2.036 -4.066,-2.036 -1.103,0 -2.152,0.35 -3.036,1.011 -1.087,0.812 -1.791,1.998 -1.984,3.341 -0.193,1.341 0.147,2.678 0.959,3.764 l 13.594,18.178 h -46.212 l 13.594,-18.178 c 0.812,-1.086 1.152,-2.423 0.959,-3.764 -0.193,-1.343 -0.897,-2.529 -1.983,-3.34 -0.885,-0.662 -1.935,-1.012 -3.037,-1.012 -1.593,0 -3.112,0.761 -4.066,2.036 l -17.742,23.723 c -0.127,0.17 -0.219,0.354 -0.321,0.534 H 1.4987352 c -0.451,0 -0.87800005,0.203 -1.16300005,0.553 -0.284,0.35 -0.397,0.809 -0.306,1.25 l 2.03000005,9.846 c 0.144,0.697 0.757,1.197 1.469,1.197 h 2.576 l 8.1909998,39.11 c 0.009,0.044 0.02,0.087 0.033,0.13 0.97,3.179 2.706,4.79 5.162,4.79 h 57.076 c 1.409,0 3.955,-0.625 5.168,-4.81 0.011,-0.037 0.02,-0.073 0.027,-0.11 l 8.191,-39.11 h 2.576 c 0.712,0 1.325,-0.5 1.469,-1.197 l 2.032,-9.846 c 0.092,-0.441 -0.021,-0.9 -0.306,-1.25 z m -35.78,-20.527 c -0.332,-0.444 -0.472,-0.99 -0.393,-1.539 0.079,-0.549 0.367,-1.033 0.812,-1.365 0.362,-0.271 0.791,-0.414 1.24,-0.414 0.661,0 1.269,0.304 1.664,0.833 l 17.74,23.723 c 0.686,0.916 0.497,2.22 -0.419,2.905 -0.361,0.271 -0.79,0.413 -1.239,0.413 h -0.001 c -0.661,0 -1.269,-0.304 -1.664,-0.833 l -17.74,-23.723 z m -44.892,21.237 17.74,-23.723 c 0.396,-0.529 1.003,-0.833 1.664,-0.833 0.449,0 0.878,0.144 1.241,0.415 0.443,0.331 0.731,0.815 0.811,1.364 0.08,0.549 -0.061,1.095 -0.393,1.539 l -17.74,23.723 c -0.666,0.889 -2.013,1.088 -2.903,0.42 -0.917,-0.685 -1.105,-1.989 -0.42,-2.905 z m 63.788,50.021 c -0.767,2.593 -1.898,2.593 -2.271,2.593 h -57.077 c -0.477,0 -1.464,0 -2.273,-2.603 l -8.0489998,-38.428 H 86.889735 l -8.05,38.438 z m -55.969,-21.391 c 0,0.003 0.001,0.007 0.002,0.011 l 3.39,16.721 c 0.142,0.699 0.756,1.202 1.47,1.202 h 40.596 c 0.714,0 1.328,-0.503 1.47,-1.202 l 3.39,-16.72 0.003,-0.013 1.683,-8.303 c 0.09,-0.441 -0.023,-0.898 -0.309,-1.247 -0.286,-0.349 -0.711,-0.551 -1.161,-0.551 h -50.748 c -0.45,0 -0.876,0.202 -1.161,0.551 -0.285,0.349 -0.398,0.806 -0.309,1.247 l 1.684,8.304 z m 23.659,14.933 h -7.32 l -0.697,-5.73 h 8.017 v 5.73 z m 0,-8.73 h -8.383 l -0.607,-5 h 8.99 v 5 z m 16.023,-13.305 h 9.015 l -1.075,5.305 h -8.585 l 0.645,-5.305 z m -1.01,8.305 h 8.342 l -1.014,5 h -7.936 l 0.608,-5 z m -0.973,8 h 7.692 l -1.161,5.73 h -7.229 l 0.698,-5.73 z m -11.04,-16.305 h 10.001 l -0.646,5.305 h -9.355 v -5.305 z m 0,8.305 h 8.99 l -0.607,5 h -8.383 v -5 z m 0,8 h 8.018 l -0.697,5.73 h -7.321 v -5.73 z m -3,-16.305 v 5.305 h -9.355 l -0.646,-5.305 h 10.001 z m -10.343,22.035 h -7.229 l -1.161,-5.73 h 7.692 l 0.698,5.73 z m -1.062,-8.73 h -7.936 l -1.014,-5 h 8.342 l 0.608,5 z m -1.618,-13.305 0.646,5.305 h -8.585 l -1.075,-5.305 h 9.014 z"
     id="path3001"
     style="fill:#ffffff"
     inkscape:connector-curvature="0" /></svg>