<?xml version="1.0" encoding="UTF-8" standalone="no"?>
<svg
   xmlns:dc="http://purl.org/dc/elements/1.1/"
   xmlns:cc="http://creativecommons.org/ns#"
   xmlns:rdf="http://www.w3.org/1999/02/22-rdf-syntax-ns#"
   xmlns:svg="http://www.w3.org/2000/svg"
   xmlns="http://www.w3.org/2000/svg"
   xmlns:sodipodi="http://sodipodi.sourceforge.net/DTD/sodipodi-0.dtd"
   xmlns:inkscape="http://www.inkscape.org/namespaces/inkscape"
   width="200"
   height="200"
   viewBox="0 0 32 32"
   enable-background="new 0 0 32 32"
   x="0px"
   y="0px"
   id="svg3045"
   version="1.1"
   inkscape:version="0.48.5 r10040"
   sodipodi:docname="increase-profitability.svg"
   style="fill:#ffffff">
  <metadata
     id="metadata3055">
    <rdf:RDF>
      <cc:Work
         rdf:about="">
        <dc:format>image/svg+xml</dc:format>
        <dc:type
           rdf:resource="http://purl.org/dc/dcmitype/StillImage" />
      </cc:Work>
    </rdf:RDF>
  </metadata>
  <defs
     id="defs3053" />
  <sodipodi:namedview
     pagecolor="#ffffff"
     bordercolor="#666666"
     borderopacity="1"
     objecttolerance="10"
     gridtolerance="10"
     guidetolerance="10"
     inkscape:pageopacity="0"
     inkscape:pageshadow="2"
     inkscape:window-width="1440"
     inkscape:window-height="807"
     id="namedview3051"
     showgrid="false"
     fit-margin-top="0"
     fit-margin-left="0"
     fit-margin-right="0"
     fit-margin-bottom="0"
     inkscape:zoom="1.18"
     inkscape:cx="-6.3559322"
     inkscape:cy="68.75"
     inkscape:window-x="0"
     inkscape:window-y="1"
     inkscape:window-maximized="1"
     inkscape:current-layer="svg3045" />
  <path
     inkscape:connector-curvature="0"
     style="fill:#ffffff"
     id="path3049"
     d="M 29.5,23 H 6.5 C 5.122,23 4,21.879 4,20.5 V 7.5 C 4,6.122 5.122,5 6.5,5 h 23 C 30.879,5 32,6.122 32,7.5 v 13 C 32,21.879 30.879,23 29.5,23 z M 6.5,7 C 6.225,7 6,7.224 6,7.5 v 13 C 6,20.775 6.224,21 6.5,21 h 23 C 29.775,21 30,20.775 30,20.5 V 7.5 C 30,7.225 29.775,7 29.5,7 H 6.5 z M 25.503,27 H 2.497 C 1.12,27 0,25.88 0,24.503 V 11.497 C 0,10.12 1.12,9 2.497,9 H 4 c 0.552,0 1,0.448 1,1 0,0.552 -0.448,1 -1,1 H 2.497 C 2.223,11 2,11.223 2,11.497 V 24.503 C 2,24.777 2.223,25 2.497,25 H 25.503 C 25.777,25 26,24.777 26,24.503 V 22 c 0,-0.553 0.447,-1 1,-1 0.553,0 1,0.447 1,1 v 2.503 C 28,25.88 26.88,27 25.503,27 z M 27,15 C 26.74,15 26.479,14.89 26.29,14.71 26.109,14.52 26,14.26 26,14 c 0,-0.26 0.109,-0.52 0.29,-0.71 0.38,-0.37 1.04,-0.37 1.42,0 0.18,0.19 0.29,0.45 0.29,0.71 0,0.26 -0.11,0.52 -0.29,0.71 C 27.52,14.89 27.26,15 27,15 z M 9,15 C 8.74,15 8.48,14.89 8.29,14.71 8.11,14.52 8,14.26 8,14 8,13.74 8.11,13.48 8.29,13.29 8.67,12.92 9.33,12.92 9.71,13.29 9.89,13.48 10,13.74 10,14 10,14.26 9.89,14.52 9.71,14.71 9.52,14.89 9.26,15 9,15 z m 10.917,4 H 15 c -0.552,0 -1,-0.447 -1,-1 0,-0.553 0.448,-1 1,-1 h 4.917 C 20.515,17 21,16.551 21,16 21,15.449 20.515,15 19.917,15 H 16 c -1.7,0 -3.083,-1.346 -3.083,-3 0,-1.654 1.383,-3 3.083,-3 h 5 c 0.553,0 1,0.448 1,1 0,0.552 -0.447,1 -1,1 h -5 c -0.598,0 -1.083,0.449 -1.083,1 0,0.551 0.486,1 1.083,1 h 3.917 c 1.7,0 3.083,1.346 3.083,3 0,1.654 -1.383,3 -3.083,3 z M 17,8 h 2 v 12 h -2 z" />
</svg>
